:::'###::::'##::: ##:'####:'##::::'##::::'###::::'##::: ##::'######::::::'###::::
::'## ##::: ###:: ##:. ##:: ###::'###:::'## ##::: ###:: ##:'##... ##::::'## ##:::
:'##:. ##:: ####: ##:: ##:: ####'####::'##:. ##:: ####: ##: ##:::..::::'##:. ##::
'##:::. ##: ## ## ##:: ##:: ## ### ##:'##:::. ##: ## ## ##: ##::'####:'##:::. ##:
 #########: ##. ####:: ##:: ##. #: ##: #########: ##. ####: ##::: ##:: #########:
 ##.... ##: ##:. ###:: ##:: ##:.:: ##: ##.... ##: ##:. ###: ##::: ##:: ##.... ##:
 ##:::: ##: ##::. ##:'####: ##:::: ##: ##:::: ##: ##::. ##:. ######::: ##:::: ##:
..:::::..::..::::..::....::..:::::..::..:::::..::..::::..:::......::::..:::::..::

:::::::::'##::::'##:'####:'########::'########::'#######:::::::::::::::::::::::
::::::::: ##:::: ##:. ##:: ##.... ##: ##.....::'##.... ##::::::::::::::::::::::
::::::::: ##:::: ##:: ##:: ##:::: ##: ##::::::: ##:::: ##::::::::::::::::::::::
::::::::: ##:::: ##:: ##:: ##:::: ##: ######::: ##:::: ##::::::::::::::::::::::
:::::::::. ##:: ##::: ##:: ##:::: ##: ##...:::: ##:::: ##::::::::::::::::::::::
::::::::::. ## ##:::: ##:: ##:::: ##: ##::::::: ##:::: ##::::::::::::::::::::::
:::::::::::. ###::::'####: ########:: ########:. #######:::::::::::::::::::::::
::::::::::::...:::::....::........:::........:::.......::::::::::::::::::::::::

	        http://www.imdb.com/title/tt0879812/

PS3/XBOX360 TESTED AND FULLY WORKING


This is my second torrent! Long time downloader ready to start sharing my rare finds. Took some time to find this and I don't see it anywhere now. This is an old encode but the next uploads will continue to grow in quality.Thanks community and especially the uber wonderful bay!

ANIMANGA-VIDEO

Complete name                    : kntmc-cd1-ENG-HARDSUBBED.avi
Format                           : AVI
Format/Info                      : Audio Video Interleave
File size                        : 635 MiB
Duration                         : 55mn 23s
Overall bit rate                 : 1 602 Kbps
Writing application              : VirtualDubMod 1.5.10.1 (build 2439/release)
Writing library                  : VirtualDub build 30091/release

Video
ID                               : 0
Format                           : MPEG-4 Visual
Format profile                   : Advanced Simple@L5
Format settings, BVOP            : Yes
Format settings, QPel            : No
Format settings, GMC             : No warppoints
Format settings, Matrix          : Default (H.263)
Muxing mode                      : Packed bitstream
Codec ID                         : XVID
Codec ID/Hint                    : XviD
Duration                         : 55mn 23s
Bit rate                         : 1 400 Kbps
Width                            : 624 pixels
Height                           : 336 pixels
Display aspect ratio             : 1.857
Frame rate                       : 23.976 fps
Resolution                       : 8 bits
Colorimetry                      : 4:2:0
Scan type                        : Progressive
Bits/(Pixel*Frame)               : 0.279
Stream size                      : 555 MiB (87%)
Writing library                  : XviD 1.1.0 Beta2 (UTC 2005-04-04)

Audio
ID                               : 1
Format                           : AC-3
Format/Info                      : Audio Coding 3
Codec ID                         : 2000
Duration                         : 55mn 23s
Bit rate mode                    : Constant
Bit rate                         : 192 Kbps
Channel(s)                       : 2 channels
Channel positions                : Front: L R
Sampling rate                    : 48.0 KHz
Stream size                      : 76.1 MiB (12%)
Alignment                        : Split accross interleaves
Interleave, duration             : 42 ms (1.00 video frame)
Interleave, preload duration     : 500 ms

Complete name                    : kntmc-cd2-ENG-HARDSUBBED.avi
Format                           : AVI
Format/Info                      : Audio Video Interleave
File size                        : 647 MiB
Duration                         : 1h 4mn
Overall bit rate                 : 1 412 Kbps
Writing application              : VirtualDubMod 1.5.10.1 (build 2439/release)
Writing library                  : VirtualDub build 30091/release

Video
ID                               : 0
Format                           : MPEG-4 Visual
Format profile                   : Advanced Simple@L5
Format settings, BVOP            : Yes
Format settings, QPel            : No
Format settings, GMC             : No warppoints
Format settings, Matrix          : Default (H.263)
Muxing mode                      : Packed bitstream
Codec ID                         : XVID
Codec ID/Hint                    : XviD
Duration                         : 1h 4mn
Bit rate                         : 1 210 Kbps
Width                            : 624 pixels
Height                           : 336 pixels
Display aspect ratio             : 1.857
Frame rate                       : 23.976 fps
Resolution                       : 8 bits
Colorimetry                      : 4:2:0
Scan type                        : Progressive
Bits/(Pixel*Frame)               : 0.241
Stream size                      : 554 MiB (86%)
Writing library                  : XviD 1.1.0 Beta2 (UTC 2005-04-04)

Audio
ID                               : 1
Format                           : AC-3
Format/Info                      : Audio Coding 3
Codec ID                         : 2000
Duration                         : 1h 4mn
Bit rate mode                    : Constant
Bit rate                         : 192 Kbps
Channel(s)                       : 2 channels
Channel positions                : Front: L R
Sampling rate                    : 48.0 KHz
Video delay                      : 20ms
Stream size                      : 87.9 MiB (14%)
Alignment                        : Split accross interleaves
Interleave, duration             : 42 ms (1.00 video frame)
Interleave, preload duration     : 500 ms


